# xmcd
#
# Track frame offsets:
#	150
#	10490
#	15537
#	37622
#	72922
#	89090
#	96130
#	108830
#	113505
#	138772
#	160145
#	214225
#	233410
#	267915
#
# Disc length: 3754 seconds
#
# Revision: 1
# Processed by: cddbd v1.5.1PL0 Copyright (c) Steve Scherf et al.
# Submitted via: EasyCDDAExtractor 7.0.4.1
#
DISCID=a80ea80e
DTITLE=Earl Okin - Musical Genius and Sex Symbol
DYEAR=2004
DGENRE=Bossa
TTITLE0=Teenage Dirtbag
TTITLE1=Sex Symbol
TTITLE2=My Room
TTITLE3=The Music Business
TTITLE4='Swonderful
TTITLE5=Musical Genius
TTITLE6=Song 2
TTITLE7=Sex Symbol II
TTITLE8=Young Men
TTITLE9=Yellow
TTITLE10=The Safe Group Sex Song
TTITLE11=Mango
TTITLE12=Bessie, Bessie, Bessie
TTITLE13=Huggin' and Chalkin'
EXTD=
EXTT0=
EXTT1=
EXTT2=
EXTT3=
EXTT4=
EXTT5=
EXTT6=
EXTT7=
EXTT8=
EXTT9=
EXTT10=
EXTT11=
EXTT12=
EXTT13=
PLAYORDER=
